<?xml version="1.0" encoding="UTF-8" standalone="no"?><!DOCTYPE svg PUBLIC "-//W3C//DTD SVG 1.1//EN" "http://www.w3.org/Graphics/SVG/1.1/DTD/svg11.dtd"><svg width="100%" height="100%" viewBox="0 0 2190 2240" version="1.1" xmlns="http://www.w3.org/2000/svg" xmlns:xlink="http://www.w3.org/1999/xlink" xml:space="preserve" xmlns:serif="http://www.serif.com/" style="fill-rule:evenodd;clip-rule:evenodd;stroke-linejoin:round;stroke-miterlimit:2;"><rect id="Artboard1" x="0" y="0" width="2189.15" height="2239.47" style="fill:none;"/><path d="M2173.62,511.554c0.801,2.962 1.21,6.017 1.217,9.086l0,476.994c0.001,12.446 -6.68,23.979 -17.476,30.171l-400.35,230.498l0,456.865c0,12.434 -6.608,23.911 -17.389,30.171l-835.697,481.081c-1.912,1.087 -3.999,1.782 -6.086,2.521c-0.782,0.261 -1.521,0.739 -2.347,0.957c-5.842,1.538 -11.983,1.538 -17.825,-0c-0.956,-0.261 -1.826,-0.783 -2.739,-1.131c-1.912,-0.695 -3.912,-1.304 -5.738,-2.347l-835.522,-481.081c-10.79,-6.198 -17.468,-17.727 -17.477,-30.171l0,-1430.98c0,-3.13 0.435,-6.173 1.218,-9.13c0.26,-0.999 0.869,-1.912 1.217,-2.912c0.652,-1.826 1.261,-3.696 2.217,-5.391c0.652,-1.13 1.608,-2.043 2.391,-3.087c1,-1.391 1.913,-2.825 3.087,-4.043c1,-1 2.304,-1.739 3.434,-2.608c1.261,-1.044 2.391,-2.174 3.826,-3l0.043,0l417.783,-240.54c10.752,-6.187 24.027,-6.187 34.779,-0l417.783,240.54l0.087,0c1.391,0.87 2.565,1.956 3.826,2.956c1.13,0.87 2.391,1.652 3.391,2.609c1.217,1.261 2.086,2.695 3.13,4.086c0.739,1.044 1.739,1.957 2.347,3.087c1,1.739 1.565,3.565 2.261,5.391c0.348,1 0.956,1.913 1.217,2.956c0.801,2.962 1.21,6.017 1.217,9.086l0,893.777l348.138,-200.458l0,-456.909c0,-3.043 0.435,-6.13 1.218,-9.042c0.304,-1.044 0.869,-1.957 1.217,-2.957c0.695,-1.825 1.304,-3.695 2.26,-5.39c0.653,-1.131 1.609,-2.044 2.348,-3.087c1.043,-1.391 1.913,-2.826 3.13,-4.043c1,-1 2.261,-1.739 3.391,-2.608c1.304,-1.044 2.435,-2.174 3.826,-3l0.043,-0l417.827,-240.54c10.749,-6.196 24.029,-6.196 34.779,-0l417.782,240.54c1.479,0.869 2.609,1.956 3.913,2.956c1.087,0.87 2.348,1.652 3.348,2.609c1.217,1.26 2.086,2.695 3.13,4.086c0.782,1.043 1.739,1.956 2.347,3.087c1,1.695 1.565,3.565 2.261,5.39c0.391,1 0.956,1.913 1.217,2.957Zm-68.428,465.951l0,-396.654l-146.202,84.165l-201.979,116.292l0,396.655l348.225,-200.458l-0.044,0Zm-417.782,717.535l-0,-396.916l-198.675,113.467l-567.333,323.793l-0,400.654l766.008,-440.998Zm-1601.57,-1350.64l0,1350.64l765.921,440.954l-0,-400.567l-400.133,-226.455l-0.13,-0.087l-0.174,-0.087c-1.348,-0.782 -2.478,-1.913 -3.739,-2.869c-1.086,-0.869 -2.347,-1.565 -3.304,-2.521l-0.087,-0.131c-1.13,-1.087 -1.912,-2.434 -2.869,-3.652c-0.869,-1.173 -1.913,-2.173 -2.608,-3.391l-0.044,-0.13c-0.782,-1.304 -1.26,-2.869 -1.826,-4.347c-0.565,-1.305 -1.304,-2.522 -1.652,-3.913l0,-0.044c-0.434,-1.652 -0.521,-3.39 -0.695,-5.086c-0.174,-1.304 -0.522,-2.608 -0.522,-3.913l0,-933.946l-201.936,-116.336l-146.202,-84.078l0,-0.044Zm383.004,-260.582l-348.094,200.371l348.007,200.37l348.051,-200.414l-348.051,-200.327l0.087,0Zm181.025,1250.48l201.935,-116.249l0,-873.649l-146.202,84.165l-201.979,116.293l0,873.648l146.246,-84.208Zm1072.37,-1014.03l-348.051,200.371l348.051,200.37l348.008,-200.414l-348.008,-200.327Zm-34.822,461.039l-201.979,-116.292l-146.203,-84.165l0,396.654l201.936,116.249l146.246,84.209l-0,-396.655Zm-800.874,893.864l510.512,-291.448l255.191,-145.637l-347.79,-200.24l-400.437,230.541l-364.962,210.109l347.486,196.675Z"/></svg>